<svg xmlns="http://www.w3.org/2000/svg" width="1440" height="1000" viewBox="0 0 1440 1000"><rect x="0" y="0" width="1440" height="1000" rx="0" fill="#f5f5f5" stroke="none" stroke-width="1.5"/><text x="36" y="39" font-family="Arial, sans-serif" font-size="24" font-weight="700" fill="#222">I06  /  Preview graph changes</text><text x="36" y="70" font-family="Arial, sans-serif" font-size="14" font-weight="400" fill="#555">Instructor story 7  ·  Low-fidelity wireframe</text><rect x="28" y="94" width="1384" height="796" rx="4" fill="white" stroke="#333" stroke-width="1.5"/><rect x="28" y="94" width="1384" height="60" rx="0" fill="#fafafa" stroke="#777" stroke-width="1.5"/><text x="52" y="130" font-family="Arial, sans-serif" font-size="18" font-weight="700" fill="#222">☰  The Slide Machine</text><text x="305" y="130" font-family="Arial, sans-serif" font-size="16" font-weight="400" fill="#222">Select project  /  Introduction to Quadratic Functions</text><text x="1240" y="130" font-family="Arial, sans-serif" font-size="14" font-weight="400" fill="#222">Instructor view</text><text x="148" y="194" font-family="Arial, sans-serif" font-size="23" font-weight="700" fill="#222">Introduction to Quadratic Functions</text><text x="148" y="222" font-family="Arial, sans-serif" font-size="14" font-weight="400" fill="#555">Lecture in progress · Speech capture active</text><rect x="148" y="246" width="900" height="95" rx="0" fill="white" stroke="#aaa" stroke-width="1.5"/><text x="173" y="278" font-family="Arial, sans-serif" font-size="20" font-weight="700" fill="#222">What is a quadratic function?</text><text x="173" y="307" font-family="Arial, sans-serif" font-size="16" font-weight="400" fill="#222">A second-degree relationship. Its graph is a parabola.</text><rect x="148" y="363" width="900" height="450" rx="0" fill="white" stroke="#555" stroke-width="1.5"/><text x="174" y="404" font-family="Arial, sans-serif" font-size="24" font-weight="700" fill="#222">Graphing quadratic functions</text><text x="174" y="448" font-family="Arial, sans-serif" font-size="16" font-weight="400" fill="#222">• Standard form: y = ax² + bx + c</text><text x="174" y="479" font-family="Arial, sans-serif" font-size="16" font-weight="400" fill="#222">• The graph of a quadratic is a parabola.</text><text x="174" y="510" font-family="Arial, sans-serif" font-size="16" font-weight="400" fill="#222">• A constant shifts the graph up or down.</text><text x="174" y="770" font-family="Arial, sans-serif" font-size="13" font-weight="400" fill="#555">Slide 2 of 3</text><rect x="148" y="824" width="900" height="27" rx="0" fill="#fafafa" stroke="#aaa" stroke-width="1.5"/><text x="160" y="843" font-family="Arial, sans-serif" font-size="13" font-weight="400" fill="#222">Live transcription: “Plot y equals x squared.”</text><text x="148" y="875" font-family="Arial, sans-serif" font-size="14" font-weight="400" fill="#222">&lt; Previous slide</text><text x="914" y="875" font-family="Arial, sans-serif" font-size="14" font-weight="400" fill="#222">Next slide &gt;</text><rect x="88" y="363" width="40" height="166" rx="3" fill="#fafafa" stroke="#aaa" stroke-width="1.5"/><text x="101" y="394" font-family="Arial, sans-serif" font-size="19" font-weight="400" fill="#222">↖</text><text x="101" y="432" font-family="Arial, sans-serif" font-size="19" font-weight="400" fill="#222">+</text><text x="101" y="470" font-family="Arial, sans-serif" font-size="19" font-weight="400" fill="#222">✎</text><text x="101" y="508" font-family="Arial, sans-serif" font-size="19" font-weight="400" fill="#222">⋮</text><text x="683" y="443" font-family="Arial, sans-serif" font-size="17" font-weight="700" fill="#222">y = x² + 2</text><path d="M 652.0 459 V 684" stroke="#ddd" fill="none"/><text x="646.0" y="704" font-family="Arial, sans-serif" font-size="12" font-weight="400" fill="#222">-5</text><path d="M 819.5 459 V 684" stroke="#ddd" fill="none"/><text x="813.5" y="704" font-family="Arial, sans-serif" font-size="12" font-weight="400" fill="#222">0</text><path d="M 987.0 459 V 684" stroke="#ddd" fill="none"/><text x="981.0" y="704" font-family="Arial, sans-serif" font-size="12" font-weight="400" fill="#222">5</text><path d="M 652 684.0 H 987" stroke="#ddd" fill="none"/><text x="626" y="688.0" font-family="Arial, sans-serif" font-size="12" font-weight="400" fill="#222">0</text><path d="M 652 609.0 H 987" stroke="#ddd" fill="none"/><text x="626" y="613.0" font-family="Arial, sans-serif" font-size="12" font-weight="400" fill="#222">10</text><path d="M 652 534.0 H 987" stroke="#ddd" fill="none"/><text x="626" y="538.0" font-family="Arial, sans-serif" font-size="12" font-weight="400" fill="#222">20</text><path d="M 652 459.0 H 987" stroke="#ddd" fill="none"/><text x="626" y="463.0" font-family="Arial, sans-serif" font-size="12" font-weight="400" fill="#222">30</text><path d="M 652 459 V 684 H 987" stroke="#222" fill="none" stroke-width="1.5"/><text x="994" y="688" font-family="Arial, sans-serif" font-size="13" font-weight="400" fill="#222">x</text><text x="648" y="450" font-family="Arial, sans-serif" font-size="13" font-weight="400" fill="#222">y</text><polyline points="652.0,481.5 655.4,488.9 658.7,496.2 662.0,503.3 665.4,510.3 668.8,517.1 672.1,523.8 675.5,530.3 678.8,536.7 682.1,542.9 685.5,549.0 688.9,554.9 692.2,560.7 695.5,566.3 698.9,571.8 702.2,577.1 705.6,582.3 709.0,587.3 712.3,592.2 715.6,596.9 719.0,601.5 722.4,605.9 725.7,610.2 729.0,614.3 732.4,618.3 735.8,622.1 739.1,625.8 742.5,629.3 745.8,632.7 749.1,635.9 752.5,639.0 755.9,641.9 759.2,644.7 762.5,647.3 765.9,649.8 769.2,652.1 772.6,654.3 776.0,656.3 779.3,658.2 782.6,659.9 786.0,661.5 789.4,662.9 792.7,664.2 796.0,665.3 799.4,666.3 802.8,667.1 806.1,667.8 809.5,668.3 812.8,668.7 816.1,668.9 819.5,669.0 822.9,668.9 826.2,668.7 829.5,668.3 832.9,667.8 836.2,667.1 839.6,666.3 843.0,665.3 846.3,664.2 849.6,662.9 853.0,661.5 856.4,659.9 859.7,658.2 863.0,656.3 866.4,654.3 869.8,652.1 873.1,649.8 876.5,647.3 879.8,644.7 883.1,641.9 886.5,639.0 889.9,635.9 893.2,632.7 896.5,629.3 899.9,625.8 903.2,622.1 906.6,618.3 910.0,614.3 913.3,610.2 916.7,605.9 920.0,601.5 923.4,596.9 926.7,592.2 930.0,587.3 933.4,582.3 936.8,577.1 940.1,571.8 943.5,566.3 946.8,560.7 950.1,554.9 953.5,549.0 956.9,542.9 960.2,536.7 963.5,530.3 966.9,523.8 970.2,517.1 973.6,510.3 977.0,503.3 980.3,496.2 983.6,488.9 987.0,481.5" fill="none" stroke="#222" stroke-width="2.5"/><text x="621" y="741" font-family="Arial, sans-serif" font-size="14" font-weight="400" fill="#222">Equation: y = x² + 2</text><rect x="1075" y="247" width="312" height="630" rx="3" fill="#fafafa" stroke="#555" stroke-width="1.5"/><text x="1093" y="276" font-family="Arial, sans-serif" font-size="20" font-weight="700" fill="#222">Edit graph</text><text x="1093" y="304" font-family="Arial, sans-serif" font-size="13" font-weight="700" fill="#222">Equation</text><rect x="1093" y="314" width="275" height="35" rx="2" fill="white" stroke="#777" stroke-width="1.5"/><text x="1103" y="337" font-family="Arial, sans-serif" font-size="14" font-weight="400" fill="#222">y = x² + 2</text><text x="1093" y="373" font-family="Arial, sans-serif" font-size="13" font-weight="700" fill="#222">Graph type</text><rect x="1093" y="383" width="275" height="35" rx="2" fill="white" stroke="#777" stroke-width="1.5"/><text x="1103" y="406" font-family="Arial, sans-serif" font-size="14" font-weight="400" fill="#222">Line / function graph</text><text x="1093" y="442" font-family="Arial, sans-serif" font-size="13" font-weight="700" fill="#222">Title</text><rect x="1093" y="452" width="275" height="35" rx="2" fill="white" stroke="#777" stroke-width="1.5"/><text x="1103" y="475" font-family="Arial, sans-serif" font-size="14" font-weight="400" fill="#222">Graph of y = x² + 2</text><text x="1093" y="511" font-family="Arial, sans-serif" font-size="13" font-weight="700" fill="#222">X-axis label</text><rect x="1093" y="521" width="127" height="35" rx="2" fill="white" stroke="#777" stroke-width="1.5"/><text x="1103" y="544" font-family="Arial, sans-serif" font-size="14" font-weight="400" fill="#222">x</text><text x="1234" y="511" font-family="Arial, sans-serif" font-size="13" font-weight="700" fill="#222">Unit (optional)</text><rect x="1234" y="521" width="134" height="35" rx="2" fill="white" stroke="#777" stroke-width="1.5"/><text x="1244" y="544" font-family="Arial, sans-serif" font-size="14" font-weight="400" fill="#222">None</text><text x="1093" y="580" font-family="Arial, sans-serif" font-size="13" font-weight="700" fill="#222">X minimum</text><rect x="1093" y="590" width="127" height="35" rx="2" fill="white" stroke="#777" stroke-width="1.5"/><text x="1103" y="613" font-family="Arial, sans-serif" font-size="14" font-weight="400" fill="#222">−5</text><text x="1234" y="580" font-family="Arial, sans-serif" font-size="13" font-weight="700" fill="#222">X maximum</text><rect x="1234" y="590" width="134" height="35" rx="2" fill="white" stroke="#777" stroke-width="1.5"/><text x="1244" y="613" font-family="Arial, sans-serif" font-size="14" font-weight="400" fill="#222">5</text><text x="1093" y="649" font-family="Arial, sans-serif" font-size="13" font-weight="700" fill="#222">Y-axis label</text><rect x="1093" y="659" width="127" height="35" rx="2" fill="white" stroke="#777" stroke-width="1.5"/><text x="1103" y="682" font-family="Arial, sans-serif" font-size="14" font-weight="400" fill="#222">y</text><text x="1234" y="649" font-family="Arial, sans-serif" font-size="13" font-weight="700" fill="#222">Unit (optional)</text><rect x="1234" y="659" width="134" height="35" rx="2" fill="white" stroke="#777" stroke-width="1.5"/><text x="1244" y="682" font-family="Arial, sans-serif" font-size="14" font-weight="400" fill="#222">None</text><text x="1093" y="718" font-family="Arial, sans-serif" font-size="13" font-weight="700" fill="#222">Y minimum</text><rect x="1093" y="728" width="127" height="35" rx="2" fill="white" stroke="#777" stroke-width="1.5"/><text x="1103" y="751" font-family="Arial, sans-serif" font-size="14" font-weight="400" fill="#222">0</text><text x="1234" y="718" font-family="Arial, sans-serif" font-size="13" font-weight="700" fill="#222">Y maximum</text><rect x="1234" y="728" width="134" height="35" rx="2" fill="white" stroke="#777" stroke-width="1.5"/><text x="1244" y="751" font-family="Arial, sans-serif" font-size="14" font-weight="400" fill="#222">30</text><rect x="1093" y="808" width="75" height="38" rx="3" fill="white" stroke="#333" stroke-width="1.5"/><text x="1105" y="833" font-family="Arial, sans-serif" font-size="14" font-weight="700" fill="#222">Cancel</text><rect x="1175" y="808" width="105" height="38" rx="3" fill="white" stroke="#333" stroke-width="1.5"/><text x="1187" y="833" font-family="Arial, sans-serif" font-size="14" font-weight="700" fill="#222">Preview</text><rect x="1287" y="808" width="81" height="38" rx="3" fill="#222" stroke="#333" stroke-width="1.5"/><text x="1299" y="833" font-family="Arial, sans-serif" font-size="14" font-weight="700" fill="white">Save</text><text x="616" y="410" font-family="Arial, sans-serif" font-size="13" font-weight="700" fill="#222">PREVIEW — unsaved changes</text><text x="36" y="927" font-family="Arial, sans-serif" font-size="15" font-weight="400" fill="#222">Example change: y = x² becomes y = x² + 2. Preview does not update the shared lecture.</text><text x="36" y="958" font-family="Arial, sans-serif" font-size="14" font-weight="400" fill="#555">Flow: Cancel → I04; continue editing → I05; Save → I08 or E05</text></svg>